#tb 0: 1/25
0,          0,          0,        1,   152064, 0xa6f9b2a8
0,          1,          1,        1,   152064, 0x936a8ed6
0,          2,          2,        1,   152064, 0xa9f47652
0,          3,          3,        1,   152064, 0xf53ea804
0,          4,          4,        1,   152064, 0xc951304d
0,          5,          5,        1,   152064, 0x59b786b9
0,          6,          6,        1,   152064, 0x01b3d9e9
0,          7,          7,        1,   152064, 0x94db5883
0,          8,          8,        1,   152064, 0xef01ce6c
0,          9,          9,        1,   152064, 0x18401484
0,         10,         10,        1,   152064, 0xf8773e58
0,         11,         11,        1,   152064, 0x09d07ae7
0,         12,         12,        1,   152064, 0xbbec5291
0,         13,         13,        1,   152064, 0x1ddcbb1e
0,         14,         14,        1,   152064, 0x51b257f2
0,         15,         15,        1,   152064, 0x2e537d43
0,         16,         16,        1,   152064, 0xc4d3c391
0,         17,         17,        1,   152064, 0xe6d0ed1c
0,         18,         18,        1,   152064, 0x99d81859
0,         19,         19,        1,   152064, 0xba1c1693
0,         20,         20,        1,   152064, 0x60a22321
0,         21,         21,        1,   152064, 0xfe000aee
0,         22,         22,        1,   152064, 0x3b056f2d
0,         23,         23,        1,   152064, 0xf735caf9
0,         24,         24,        1,   152064, 0x81b94a66
0,         25,         25,        1,   152064, 0x28ad08af
0,         26,         26,        1,   152064, 0x69b316f5
0,         27,         27,        1,   152064, 0xa90e6480
0,         28,         28,        1,   152064, 0x2600a97a
0,         29,         29,        1,   152064, 0x28b1e894
0,         30,         30,        1,   152064, 0x8caaeb3c
0,         31,         31,        1,   152064, 0xeaa3cd5d
0,         32,         32,        1,   152064, 0x2aeab842
0,         33,         33,        1,   152064, 0x8781b8fe
0,         34,         34,        1,   152064, 0xd5829de5
0,         35,         35,        1,   152064, 0xd04489cd
0,         36,         36,        1,   152064, 0xfe268158
0,         37,         37,        1,   152064, 0x43917137
0,         38,         38,        1,   152064, 0x99963053
0,         39,         39,        1,   152064, 0xe085087d
0,         40,         40,        1,   152064, 0x0344f8d3
0,         41,         41,        1,   152064, 0xe353b02a
0,         42,         42,        1,   152064, 0x3f84816d
0,         43,         43,        1,   152064, 0x3c3a8145
0,         44,         44,        1,   152064, 0x478caf10
0,         45,         45,        1,   152064, 0xdc879176
0,         46,         46,        1,   152064, 0x502f3b81
0,         47,         47,        1,   152064, 0x49997d1a
0,         48,         48,        1,   152064, 0x6375e30f
0,         49,         49,        1,   152064, 0x2abd5994
0,         50,         50,        1,   152064, 0xa32a06a0
0,         51,         51,        1,   152064, 0x9a2aed47
0,         52,         52,        1,   152064, 0x1963fa9d
0,         53,         53,        1,   152064, 0xa429cc58
0,         54,         54,        1,   152064, 0x8f08abca
0,         55,         55,        1,   152064, 0xdabe3408
0,         56,         56,        1,   152064, 0x5b94b0f1
0,         57,         57,        1,   152064, 0xb2565ba5
0,         58,         58,        1,   152064, 0x6eaf3500
0,         59,         59,        1,   152064, 0x04d79374
0,         60,         60,        1,   152064, 0x0a9281d7
0,         61,         61,        1,   152064, 0x97bf672b
0,         62,         62,        1,   152064, 0x996d0b1a
0,         63,         63,        1,   152064, 0xb5c4d52d
0,         64,         64,        1,   152064, 0x8ab3897b
0,         65,         65,        1,   152064, 0xd3303ae0
0,         66,         66,        1,   152064, 0x2c217280
0,         67,         67,        1,   152064, 0xcc21c7ff
0,         68,         68,        1,   152064, 0xf9ae50ea
0,         69,         69,        1,   152064, 0xa8af67a2
0,         70,         70,        1,   152064, 0xba2cbf40
0,         71,         71,        1,   152064, 0x80364875
0,         72,         72,        1,   152064, 0xe7028c24
0,         73,         73,        1,   152064, 0x6730636d
0,         74,         74,        1,   152064, 0xd5d9bf5f
0,         75,         75,        1,   152064, 0x2ec4cf74
0,         76,         76,        1,   152064, 0x47c0e7ec
0,         77,         77,        1,   152064, 0x0e1741fb
0,         78,         78,        1,   152064, 0x4b39d9b6
0,         79,         79,        1,   152064, 0x30737f2e
0,         80,         80,        1,   152064, 0xce133061
0,         81,         81,        1,   152064, 0x3b7ce6b9
0,         82,         82,        1,   152064, 0x5b11d100
0,         83,         83,        1,   152064, 0x8bd801ca
0,         84,         84,        1,   152064, 0x5d322cf6
0,         85,         85,        1,   152064, 0xdd47a0a3
0,         86,         86,        1,   152064, 0x0e3b3c60
0,         87,         87,        1,   152064, 0x8b69ac27
0,         88,         88,        1,   152064, 0xef66b267
0,         89,         89,        1,   152064, 0x29140655
0,         90,         90,        1,   152064, 0x25f6ae5c
0,         91,         91,        1,   152064, 0xc1a48b89
0,         92,         92,        1,   152064, 0xc3eee9e4
0,         93,         93,        1,   152064, 0xec23534a
0,         94,         94,        1,   152064, 0x9eed2a2e
0,         95,         95,        1,   152064, 0x7e5de8e7
0,         96,         96,        1,   152064, 0x8d824e10
0,         97,         97,        1,   152064, 0x841ebdc5
0,         98,         98,        1,   152064, 0x9bc03542
0,         99,         99,        1,   152064, 0xd77d5b14
0,        100,        100,        1,   152064, 0x2b4597ed
0,        101,        101,        1,   152064, 0xf460a0c5
0,        102,        102,        1,   152064, 0x01f58bf9
0,        103,        103,        1,   152064, 0xa5cb8dd9
0,        104,        104,        1,   152064, 0x12e49e6f
0,        105,        105,        1,   152064, 0x6aaac311
0,        106,        106,        1,   152064, 0x0ff1d37a
0,        107,        107,        1,   152064, 0x0e5ca8ce
0,        108,        108,        1,   152064, 0x997c3a1f
0,        109,        109,        1,   152064, 0x83c1d64e
0,        110,        110,        1,   152064, 0xed2379a3
0,        111,        111,        1,   152064, 0xe6b83696
0,        112,        112,        1,   152064, 0x1a7c1864
0,        113,        113,        1,   152064, 0xb0bcf08e
0,        114,        114,        1,   152064, 0x74deb96f
0,        115,        115,        1,   152064, 0xe86a9396
0,        116,        116,        1,   152064, 0xf78a916b
0,        117,        117,        1,   152064, 0x8d35a888
0,        118,        118,        1,   152064, 0xb01a956d
0,        119,        119,        1,   152064, 0xc8d37b7d
0,        120,        120,        1,   152064, 0x903251c9
0,        121,        121,        1,   152064, 0x93b819ac
0,        122,        122,        1,   152064, 0xb949f48f
0,        123,        123,        1,   152064, 0x7dbfeaba
0,        124,        124,        1,   152064, 0x951903ae
0,        125,        125,        1,   152064, 0x05742b8e
0,        126,        126,        1,   152064, 0xb270514a
0,        127,        127,        1,   152064, 0xf729867a
0,        128,        128,        1,   152064, 0x7e05f652
0,        129,        129,        1,   152064, 0x32a99f23
0,        130,        130,        1,   152064, 0x57e7394b
0,        131,        131,        1,   152064, 0xc0ffc453
0,        132,        132,        1,   152064, 0x7b1e79fa
0,        133,        133,        1,   152064, 0x90ee1d52
0,        134,        134,        1,   152064, 0xaed672a8
0,        135,        135,        1,   152064, 0xa253ccc4
0,        136,        136,        1,   152064, 0x2d0807f9
0,        137,        137,        1,   152064, 0xdc7ec4cc
0,        138,        138,        1,   152064, 0x3c624e2e
0,        139,        139,        1,   152064, 0xfa4a91dd
0,        140,        140,        1,   152064, 0xcaa83992
0,        141,        141,        1,   152064, 0x81e5c52d
0,        142,        142,        1,   152064, 0x46ab76f8
0,        143,        143,        1,   152064, 0x4ab115d8
0,        144,        144,        1,   152064, 0x65d8c9d7
0,        145,        145,        1,   152064, 0xcb1e16b1
0,        146,        146,        1,   152064, 0xb766c029
0,        147,        147,        1,   152064, 0x2a49c7c0
0,        148,        148,        1,   152064, 0x37f35440
0,        149,        149,        1,   152064, 0x33b4940f
0,        150,        150,        1,   152064, 0x6b22fb9a
0,        151,        151,        1,   152064, 0x785e138a
0,        152,        152,        1,   152064, 0xc7a1954a
0,        153,        153,        1,   152064, 0x6f325026
0,        154,        154,        1,   152064, 0x23d6bf8d
0,        155,        155,        1,   152064, 0x8e6f5815
0,        156,        156,        1,   152064, 0x434c4770
0,        157,        157,        1,   152064, 0x22319908
0,        158,        158,        1,   152064, 0xec368ac8
0,        159,        159,        1,   152064, 0xc69d7306
0,        160,        160,        1,   152064, 0xc10ab1c8
0,        161,        161,        1,   152064, 0x2497f329
0,        162,        162,        1,   152064, 0x95782b50
0,        163,        163,        1,   152064, 0xe0481c57
0,        164,        164,        1,   152064, 0xa656f1e6
0,        165,        165,        1,   152064, 0x562da8a1
0,        166,        166,        1,   152064, 0x21716296
0,        167,        167,        1,   152064, 0xb1ffd9de
0,        168,        168,        1,   152064, 0x49204932
0,        169,        169,        1,   152064, 0x88e1ac93
0,        170,        170,        1,   152064, 0x6abb5dfb
0,        171,        171,        1,   152064, 0xacdede42
0,        172,        172,        1,   152064, 0xca28f448
0,        173,        173,        1,   152064, 0x6b7e5e84
0,        174,        174,        1,   152064, 0x464d4b58
0,        175,        175,        1,   152064, 0xd39620f1
0,        176,        176,        1,   152064, 0x67336772
0,        177,        177,        1,   152064, 0x6de386c2
0,        178,        178,        1,   152064, 0x6d8fbc97
0,        179,        179,        1,   152064, 0x09fbc88d
0,        180,        180,        1,   152064, 0x08dfa188
0,        181,        181,        1,   152064, 0xf3461401
0,        182,        182,        1,   152064, 0xdd6d1ce5
0,        183,        183,        1,   152064, 0x90182ee8
0,        184,        184,        1,   152064, 0xcb7cf9a2
0,        185,        185,        1,   152064, 0x237e59bd
0,        186,        186,        1,   152064, 0xf2efa664
0,        187,        187,        1,   152064, 0x6565d69b
0,        188,        188,        1,   152064, 0x321ce6e5
0,        189,        189,        1,   152064, 0xc7035cb7
0,        190,        190,        1,   152064, 0xbfcf2ecc
0,        191,        191,        1,   152064, 0x8a2eb353
0,        192,        192,        1,   152064, 0x5224b608
0,        193,        193,        1,   152064, 0xc0c51491
0,        194,        194,        1,   152064, 0xdeadac32
0,        195,        195,        1,   152064, 0x8ffd15fe
0,        196,        196,        1,   152064, 0x6a7fda8c
0,        197,        197,        1,   152064, 0x32ae6c5a
0,        198,        198,        1,   152064, 0x9668d580
0,        199,        199,        1,   152064, 0xb10325d6
0,        200,        200,        1,   152064, 0x1cfa4e12
0,        201,        201,        1,   152064, 0x87cb2dc6
0,        202,        202,        1,   152064, 0x03636041
0,        203,        203,        1,   152064, 0x266df3d6
0,        204,        204,        1,   152064, 0x48cd5b1b
0,        205,        205,        1,   152064, 0xf42e4dde
0,        206,        206,        1,   152064, 0x63b21de2
0,        207,        207,        1,   152064, 0xef377b16
0,        208,        208,        1,   152064, 0x540a3c21
0,        209,        209,        1,   152064, 0xbc7576a4
0,        210,        210,        1,   152064, 0x38508049
0,        211,        211,        1,   152064, 0x5c120e6f
0,        212,        212,        1,   152064, 0x5f7dae8a
0,        213,        213,        1,   152064, 0x84632e15
0,        214,        214,        1,   152064, 0xe6200a58
0,        215,        215,        1,   152064, 0xeef9c63d
0,        216,        216,        1,   152064, 0xe5c60794
0,        217,        217,        1,   152064, 0x387849c9
0,        218,        218,        1,   152064, 0x165744e6
0,        219,        219,        1,   152064, 0xdc9cce84
0,        220,        220,        1,   152064, 0xea3604e0
0,        221,        221,        1,   152064, 0xaf9f5a76
0,        222,        222,        1,   152064, 0x05ee7254
0,        223,        223,        1,   152064, 0x62ed20cf
0,        224,        224,        1,   152064, 0x6e038a86
0,        225,        225,        1,   152064, 0xc782f21c
0,        226,        226,        1,   152064, 0x9d214e66
0,        227,        227,        1,   152064, 0xd33ad489
0,        228,        228,        1,   152064, 0x5b04dd7a
0,        229,        229,        1,   152064, 0xaf9a865d
0,        230,        230,        1,   152064, 0x9eb4912a
0,        231,        231,        1,   152064, 0x677628d8
0,        232,        232,        1,   152064, 0x0b15e1b6
0,        233,        233,        1,   152064, 0xda66848a
0,        234,        234,        1,   152064, 0xd29a27a8
0,        235,        235,        1,   152064, 0x2d74c6a2
0,        236,        236,        1,   152064, 0xafa69b91
0,        237,        237,        1,   152064, 0xf065a24b
0,        238,        238,        1,   152064, 0xe9d5fe63
0,        239,        239,        1,   152064, 0xe0428668
0,        240,        240,        1,   152064, 0x2cfe6235
0,        241,        241,        1,   152064, 0x6506229d
0,        242,        242,        1,   152064, 0xc8cddb6b
0,        243,        243,        1,   152064, 0x1b827b12
0,        244,        244,        1,   152064, 0x366af54b
0,        245,        245,        1,   152064, 0x810b5998
0,        246,        246,        1,   152064, 0x40d8d09e
0,        247,        247,        1,   152064, 0xf5bd32c5
0,        248,        248,        1,   152064, 0xb7af7607
0,        249,        249,        1,   152064, 0x005ac53b
0,        250,        250,        1,   152064, 0x1a28f754
0,        251,        251,        1,   152064, 0x8e15108e
0,        252,        252,        1,   152064, 0xb40515ec
0,        253,        253,        1,   152064, 0x43a30620
0,        254,        254,        1,   152064, 0x000beec8
0,        255,        255,        1,   152064, 0x1f6e9253
0,        256,        256,        1,   152064, 0x14695f50
0,        257,        257,        1,   152064, 0x056359d6
0,        258,        258,        1,   152064, 0xdc4360e5
0,        259,        259,        1,   152064, 0x3716abb2
0,        260,        260,        1,   152064, 0xee1cff6a
0,        261,        261,        1,   152064, 0x7b251ba9
0,        262,        262,        1,   152064, 0xe4f81d2e
0,        263,        263,        1,   152064, 0x01411136
0,        264,        264,        1,   152064, 0xcff2f30a
0,        265,        265,        1,   152064, 0xc8bcd80d
0,        266,        266,        1,   152064, 0x94e8a397
0,        267,        267,        1,   152064, 0x6fd071c8
0,        268,        268,        1,   152064, 0xb6145d60
0,        269,        269,        1,   152064, 0x593f5f70
0,        270,        270,        1,   152064, 0xb5133bb7
0,        271,        271,        1,   152064, 0x40ad1ae8
0,        272,        272,        1,   152064, 0xedfc0faa
0,        273,        273,        1,   152064, 0xa2ab0578
0,        274,        274,        1,   152064, 0x3038fb4f
0,        275,        275,        1,   152064, 0xdf10fb53
0,        276,        276,        1,   152064, 0x6b63ff01
0,        277,        277,        1,   152064, 0xb34af6cd
0,        278,        278,        1,   152064, 0xc7e9cfb0
0,        279,        279,        1,   152064, 0x22ffb57c
0,        280,        280,        1,   152064, 0xf429b3eb
0,        281,        281,        1,   152064, 0x3861e0db
0,        282,        282,        1,   152064, 0x166321b7
0,        283,        283,        1,   152064, 0x3058744c
0,        284,        284,        1,   152064, 0x6e1dc37a
0,        285,        285,        1,   152064, 0xef2aee63
0,        286,        286,        1,   152064, 0x1a9c3957
0,        287,        287,        1,   152064, 0x93807ed4
0,        288,        288,        1,   152064, 0x117fcbe1
0,        289,        289,        1,   152064, 0x80502017
0,        290,        290,        1,   152064, 0xba5a3dac
0,        291,        291,        1,   152064, 0x157764f1
0,        292,        292,        1,   152064, 0xc7577daf
0,        293,        293,        1,   152064, 0xe9e8ae69
0,        294,        294,        1,   152064, 0x04f9ddac
0,        295,        295,        1,   152064, 0x90441226
0,        296,        296,        1,   152064, 0xaa594ed2
0,        297,        297,        1,   152064, 0x59258b49
0,        298,        298,        1,   152064, 0x13ec85c6
